<svg xmlns="http://www.w3.org/2000/svg" viewBox="0 0 280 100" fill="none">
  <!-- Hexagonal Icon with Atom -->
  <g transform="translate(10, 5)">
    <!-- Outer Hexagon -->
    <path d="M45 5 L80 25 L80 65 L45 85 L10 65 L10 25 Z" stroke="currentColor" stroke-width="3" fill="none"/>
    <!-- Inner decorative lines -->
    <path d="M20 20 L35 20 M55 20 L70 20 M75 30 L75 40 M75 50 L75 60 M70 70 L55 70 M35 70 L20 70 M15 60 L15 50 M15 40 L15 30" stroke="currentColor" stroke-width="2" fill="none"/>
    <!-- Corner circles -->
    <circle cx="20" cy="20" r="3" fill="currentColor"/>
    <circle cx="70" cy="20" r="3" fill="currentColor"/>
    <circle cx="75" cy="45" r="3" fill="currentColor"/>
    <circle cx="70" cy="70" r="3" fill="currentColor"/>
    <circle cx="20" cy="70" r="3" fill="currentColor"/>
    <circle cx="15" cy="45" r="3" fill="currentColor"/>
    <!-- Atom structure -->
    <ellipse cx="45" cy="45" rx="22" ry="10" stroke="currentColor" stroke-width="2" fill="none" transform="rotate(-30 45 45)"/>
    <ellipse cx="45" cy="45" rx="22" ry="10" stroke="currentColor" stroke-width="2" fill="none" transform="rotate(30 45 45)"/>
    <ellipse cx="45" cy="45" rx="22" ry="10" stroke="currentColor" stroke-width="2" fill="none" transform="rotate(90 45 45)"/>
    <circle cx="45" cy="45" r="4" fill="currentColor"/>
  </g>
  
  <!-- Nano Pro Text -->
  <g transform="translate(100, 20)">
    <!-- N stylized -->
    <path d="M0 60 L0 10 L8 10 L8 15 L15 10 L35 55 L35 10 L45 10 L45 60 L35 60 L10 20 L10 60 Z" fill="currentColor"/>
    <!-- a -->
    <path d="M55 35 C55 25 65 20 75 25 L75 20 L85 20 L85 60 L75 60 L75 55 C70 62 55 60 55 45 L55 35 M65 35 L65 45 C65 52 75 52 75 45 L75 35 C75 28 65 28 65 35" fill="currentColor"/>
    <!-- n -->
    <path d="M95 60 L95 30 C95 22 105 18 115 25 L115 20 L125 20 L125 60 L115 60 L115 35 C115 30 105 30 105 35 L105 60 Z" fill="currentColor"/>
    <!-- o -->
    <path d="M135 40 C135 22 165 22 165 40 C165 58 135 58 135 40 M145 40 C145 50 155 50 155 40 C155 30 145 30 145 40" fill="currentColor"/>
  </g>
  
  <!-- Pro text -->
  <g transform="translate(195, 20)">
    <!-- P -->
    <path d="M0 60 L0 10 L25 10 C40 10 40 35 25 35 L10 35 L10 60 Z M10 18 L10 28 L22 28 C28 28 28 18 22 18 Z" fill="currentColor"/>
    <!-- r -->
    <path d="M45 60 L45 20 L55 20 L55 28 C60 18 75 20 75 25 L70 32 C65 28 55 28 55 35 L55 60 Z" fill="currentColor"/>
    <!-- o -->
    <path d="M80 40 C80 22 110 22 110 40 C110 58 80 58 80 40 M90 40 C90 50 100 50 100 40 C100 30 90 30 90 40" fill="currentColor"/>
  </g>
</svg>
